<svg xmlns="http://www.w3.org/2000/svg" viewBox="0 0 548 110" role="img" aria-label="RSL Internet Collective">
  
  <svg x="0" y="0" width="184.5" height="110" viewBox="0 0 1677 1000" overflow="visible">
    <polygon points="838,6 7,188 138,772 838,990" fill="#ef6429"></polygon>
    <polygon points="838,6 1670,188 1539,772 838,990" fill="#e54d26"></polygon>
    <g transform="translate(193.25,200) scale(518)" fill="#ffffff" fill-rule="evenodd"><path d="M1.3089 0.0000L1.3685 0.0007L1.4110 0.0048L1.4644 0.0144L1.4945 0.0226L1.5301 0.0349L1.5767 0.0555L1.6219 0.0815L1.6527 0.1041L1.6521 0.3185L1.5164 0.3185L1.4925 0.1849L1.4822 0.1774L1.4438 0.1596L1.3932 0.1459L1.3452 0.1404L1.3055 0.1404L1.2658 0.1459L1.2384 0.1541L1.2151 0.1651L1.1870 0.1863L1.1705 0.2068L1.1582 0.2356L1.1541 0.2685L1.1596 0.3027L1.1651 0.3164L1.1747 0.3315L1.1973 0.3541L1.2370 0.3788L1.2740 0.3952L1.3562 0.4240L1.4219 0.4432L1.4616 0.4582L1.5247 0.4884L1.5521 0.5048L1.5973 0.5390L1.6295 0.5726L1.6500 0.6027L1.6610 0.6247L1.6719 0.6562L1.6788 0.6890L1.6815 0.7205L1.6801 0.7603L1.6760 0.7863L1.6651 0.8233L1.6514 0.8521L1.6363 0.8753L1.6130 0.9027L1.5959 0.9185L1.5644 0.9418L1.5110 0.9692L1.4712 0.9829L1.4370 0.9911L1.4041 0.9966L1.3575 1.0007L1.2904 1.0007L1.2493 0.9979L1.1904 0.9897L1.1315 0.9760L1.0616 0.9500L1.0041 0.9199L0.9637 0.8932L0.9644 0.6637L1.1041 0.6637L1.1267 0.8068L1.1479 0.8212L1.1726 0.8336L1.2014 0.8445L1.2370 0.8541L1.3041 0.8623L1.3616 0.8610L1.3986 0.8541L1.4219 0.8459L1.4411 0.8363L1.4603 0.8226L1.4774 0.8041L1.4911 0.7795L1.4966 0.7616L1.4993 0.7397L1.4952 0.7000L1.4884 0.6808L1.4801 0.6658L1.4548 0.6377L1.4205 0.6144L1.3863 0.5979L1.3425 0.5815L1.2836 0.5651L1.2110 0.5404L1.1411 0.5103L1.1014 0.4884L1.0548 0.4541L1.0226 0.4205L1.0062 0.3973L0.9925 0.3712L0.9801 0.3342L0.9733 0.2863L0.9733 0.2562L0.9788 0.2151L0.9897 0.1795L1.0021 0.1534L1.0308 0.1123L1.0603 0.0829L1.0795 0.0678L1.1096 0.0486L1.1493 0.0295L1.1890 0.0158L1.2247 0.0075L1.2630 0.0021Z M-0.0007 0.0137L0.4740 0.0130L0.5301 0.0171L0.5986 0.0308L0.6452 0.0473L0.6973 0.0760L0.7219 0.0952L0.7459 0.1192L0.7760 0.1616L0.7925 0.1986L0.7993 0.2219L0.8075 0.2753L0.8075 0.3205L0.8021 0.3616L0.7966 0.3836L0.7856 0.4137L0.7678 0.4479L0.7418 0.4836L0.7137 0.5116L0.6945 0.5267L0.6671 0.5445L0.6411 0.5568L0.6390 0.5603L0.7705 0.8589L0.8500 0.8767L0.8493 0.9870L0.6301 0.9870L0.6281 0.9849L0.4699 0.5911L0.2877 0.5911L0.2856 0.5932L0.2856 0.8562L0.3911 0.8781L0.3904 0.9870L-0.0007 0.9863L-0.0007 0.8781L0.0014 0.8760L0.1014 0.8582L0.1048 0.8562L0.1048 0.1452L0.0973 0.1418L-0.0007 0.1233Z M1.7664 0.0137L2.1678 0.0137L2.1678 0.1233L2.0527 0.1438L2.0527 0.8466L2.3411 0.8473L2.3432 0.8452L2.3534 0.7021L2.4904 0.7021L2.4904 0.9870L1.7664 0.9863L1.7664 0.8781L1.7685 0.8760L1.8534 0.8610L1.8705 0.8562L1.8705 0.1438L1.7664 0.1233Z M0.2877 0.1527L0.2856 0.1548L0.2863 0.4514L0.4699 0.4514L0.5055 0.4473L0.5425 0.4377L0.5658 0.4267L0.5836 0.4144L0.6021 0.3945L0.6171 0.3671L0.6240 0.3425L0.6267 0.3233L0.6253 0.2795L0.6212 0.2589L0.6089 0.2274L0.5952 0.2068L0.5753 0.1870L0.5616 0.1774L0.5356 0.1651L0.4959 0.1555L0.4548 0.1527Z"></path></g>
  </svg>
  
  <rect x="214.5" y="17" width="1.4" height="76" fill="#dcdad3"></rect>
  
  <g transform="translate(246,22.7) scale(0.24375)" fill="#24242a">
    <path d="M4.5 0.0L28.5 0.0L28.0 109.5L4.5 109.0Z M77.5 0.0L100.0 -0.5L151.0 67.5L151.5 0.0L174.5 0.0L174.0 109.5L152.0 109.5L101.0 40.5L100.5 109.0L77.5 109.0Z M214.5 0.0L310.5 0.0L310.0 19.5L274.5 20.0L274.0 109.5L250.5 109.0L250.5 21.0L249.0 19.5L215.0 19.5Z M350.5 0.0L439.5 0.0L439.0 19.5L375.5 20.0L376.0 43.5L431.5 44.0L431.0 63.5L376.0 63.5L375.5 89.0L440.0 89.5L440.0 109.5L350.5 109.0Z M485.5 0.0L555.0 -0.5L565.0 2.5L570.0 5.5L575.5 11.0L581.5 24.0L581.5 30.0L582.5 31.0L581.5 43.0L575.5 56.0L569.0 62.5L563.5 66.0L585.5 108.0L585.0 109.5L559.0 109.5L539.0 69.5L510.0 69.5L509.5 109.0L485.5 109.0Z M626.5 0.0L650.0 -0.5L700.0 67.5L700.5 0.0L723.5 0.0L723.0 109.5L702.0 109.5L662.5 58.0L651.0 40.5L649.5 41.0L649.5 109.0L626.5 109.0Z M772.5 0.0L860.5 0.0L860.0 19.5L797.5 20.0L798.0 43.5L853.5 44.0L853.5 62.0L852.0 63.5L798.0 63.5L797.5 89.0L861.0 89.5L861.0 109.5L772.5 109.0Z M898.5 0.0L993.5 0.0L993.0 19.5L958.5 20.0L958.0 109.5L935.0 109.5L933.5 108.0L933.5 20.0L899.0 19.5Z M511.0 18.5L509.5 20.0L509.5 49.0L511.0 50.5L541.0 50.5L542.0 49.5L548.0 49.5L555.5 43.0L557.5 37.0L557.5 32.0L555.5 26.0L550.0 20.5L541.0 18.5Z M41.5 152.0L64.0 151.5L79.0 155.5L89.0 161.5L95.5 168.0L99.5 174.0L102.5 182.0L103.5 187.0L103.0 195.5L80.0 195.5L78.5 194.0L78.5 188.0L76.5 183.0L71.0 176.5L60.0 171.5L47.0 171.5L34.0 177.5L27.5 187.0L24.5 199.0L25.5 223.0L27.5 230.0L30.5 235.0L37.0 241.5L41.0 243.5L49.0 245.5L57.0 245.5L66.0 243.5L70.0 241.5L76.5 235.0L79.5 228.0L80.0 221.5L103.5 222.0L102.5 235.0L100.5 241.0L95.5 249.0L86.0 257.5L72.0 263.5L62.0 264.5L61.0 265.5L46.0 265.5L26.0 260.5L12.5 251.0L5.5 241.0L1.5 230.0L0.5 220.0L-0.5 219.0L-0.5 198.0L2.5 183.0L6.5 174.0L11.5 167.0L22.0 158.5L30.0 154.5Z M186.5 152.0L209.0 151.5L219.0 153.5L233.0 159.5L244.5 170.0L252.5 187.0L254.5 197.0L254.5 219.0L253.5 220.0L253.5 226.0L249.5 238.0L245.5 245.0L239.0 252.5L234.0 256.5L221.0 262.5L206.0 265.5L190.0 265.5L170.0 260.5L160.0 254.5L151.5 246.0L146.5 237.0L143.5 228.0L142.5 216.0L141.5 215.0L141.5 202.0L142.5 201.0L142.5 193.0L144.5 185.0L149.5 174.0L157.0 164.5L167.0 157.5L177.0 153.5Z M709.5 152.0L732.0 151.5L747.0 155.5L757.0 161.5L762.5 167.0L769.5 180.0L771.5 190.0L771.5 194.0L770.0 195.5L747.0 195.5L745.5 186.0L740.5 178.0L736.0 174.5L728.0 171.5L715.0 171.5L706.0 174.5L698.5 181.0L694.5 189.0L692.5 197.0L692.5 219.0L694.5 228.0L697.5 234.0L705.0 241.5L709.0 243.5L717.0 245.5L725.0 245.5L734.0 243.5L739.0 240.5L744.5 235.0L747.5 227.0L748.0 221.5L771.5 222.0L769.5 237.0L762.5 250.0L754.0 257.5L740.0 263.5L730.0 264.5L729.0 265.5L714.0 265.5L696.0 261.5L684.0 254.5L679.5 250.0L674.5 243.0L669.5 231.0L668.5 221.0L667.5 220.0L667.5 196.0L669.5 186.0L675.5 172.0L685.0 161.5L693.0 156.5Z M298.5 154.0L323.5 154.0L323.5 242.0L378.0 242.5L378.0 263.5L298.5 263.0Z M418.5 154.0L442.5 154.0L442.5 242.0L497.0 242.5L497.0 263.5L418.5 263.0Z M537.5 154.0L626.5 154.0L626.0 173.5L562.5 174.0L563.0 197.5L618.5 198.0L618.0 217.5L563.0 217.5L562.5 243.0L627.0 243.5L627.0 263.5L537.5 263.0Z M802.5 154.0L898.5 154.0L898.0 173.5L862.5 174.0L862.0 263.5L838.5 263.0L838.5 175.0L837.0 173.5L803.0 173.5Z M938.5 154.0L963.5 154.0L963.0 263.5L938.5 263.0Z M1001.5 154.0L1028.5 154.0L1056.0 236.5L1083.5 154.0L1109.5 154.0L1093.5 199.0L1091.5 202.0L1089.5 210.0L1087.5 213.0L1080.5 235.0L1078.5 238.0L1076.5 246.0L1074.5 249.0L1072.5 257.0L1069.0 263.5L1042.0 263.5L1040.5 262.0Z M1148.5 154.0L1236.5 154.0L1236.0 173.5L1172.5 174.0L1173.0 197.5L1229.5 198.0L1229.5 216.0L1228.0 217.5L1173.0 217.5L1172.5 243.0L1237.0 243.5L1237.0 263.5L1148.5 263.0Z M191.0 171.5L180.0 175.5L172.5 183.0L168.5 191.0L167.5 203.0L166.5 204.0L167.5 221.0L171.5 232.0L181.0 241.5L185.0 243.5L195.0 245.5L208.0 244.5L217.0 240.5L223.5 234.0L226.5 229.0L229.5 219.0L229.5 198.0L227.5 190.0L224.5 184.0L216.0 175.5L205.0 171.5Z"></path>
  </g>
</svg>